<?xml version="1.0" standalone="no"?>
<!DOCTYPE svg PUBLIC "-//W3C//DTD SVG 20010904//EN"
 "http://www.w3.org/TR/2001/REC-SVG-20010904/DTD/svg10.dtd">
<svg version="1.0" xmlns="http://www.w3.org/2000/svg"
 width="700.000000pt" height="700.000000pt" viewBox="0 0 700.000000 700.000000"
 preserveAspectRatio="xMidYMid meet">
<metadata>
Created by potrace 1.14, written by Peter Selinger 2001-2017
</metadata>
<g transform="translate(0.000000,700.000000) scale(0.100000,-0.100000)"
fill="#000000" stroke="none">
<path d="M3448 6345 c-2 -2 -50 -6 -108 -10 -57 -4 -107 -8 -111 -11 -3 -2
-21 -5 -40 -8 -283 -38 -630 -209 -875 -432 -111 -100 -314 -362 -314 -403 0
-7 -38 -11 -107 -12 -60 0 -121 -2 -138 -4 -16 -2 -53 -6 -81 -9 -135 -13
-381 -93 -502 -163 -163 -94 -291 -200 -406 -338 -153 -182 -268 -427 -302
-641 -3 -21 -8 -42 -10 -45 -4 -7 -18 -187 -17 -224 7 -543 313 -1028 803
-1275 85 -43 225 -91 317 -110 l63 -13 -5 -76 c-3 -42 -7 -125 -10 -186 -4
-108 -9 -206 -20 -415 -6 -129 -14 -273 -20 -405 -3 -55 -7 -140 -10 -190 -27
-514 -27 -513 -6 -559 24 -52 84 -122 125 -143 29 -15 171 -17 1811 -18 1437
-1 1789 2 1826 12 106 30 165 135 155 275 -3 40 -8 132 -11 203 -3 72 -8 162
-10 200 -2 39 -7 129 -10 200 -3 72 -8 162 -10 200 -2 39 -7 129 -10 200 -3
72 -8 162 -10 200 -4 65 -10 198 -20 402 -3 72 -1 83 13 84 62 3 236 65 364
131 374 193 657 545 757 943 19 78 23 102 36 214 13 107 6 272 -17 386 -5 28
-12 61 -14 75 -13 68 -78 239 -124 327 -187 357 -523 622 -910 716 -136 34
-157 36 -335 43 -86 4 -152 11 -154 16 -2 6 -28 47 -59 92 -271 399 -720 684
-1182 750 -105 15 -304 28 -312 21z m-611 -3744 c94 -48 134 -148 109 -276 -5
-22 -10 -50 -12 -63 -10 -60 -25 -140 -29 -162 -3 -14 -18 -98 -35 -187 -16
-89 -38 -179 -48 -200 -39 -75 -103 -112 -200 -115 -47 -2 -67 3 -104 24 -50
30 -57 37 -87 91 -27 49 -32 106 -16 192 8 39 16 90 20 115 4 24 8 47 10 50 1
3 6 27 9 54 4 27 9 52 11 56 2 3 6 26 10 50 3 25 8 52 11 61 3 10 6 30 9 45 2
16 8 48 13 72 5 23 8 42 6 42 -8 0 39 86 60 108 63 70 176 88 263 43z m727 14
c51 -8 92 -40 124 -95 l27 -45 0 -390 c-1 -214 -4 -401 -8 -414 -3 -14 -19
-41 -35 -60 -76 -94 -237 -106 -325 -23 -62 59 -61 50 -63 479 l-2 392 25 51
c15 31 40 61 63 76 36 24 110 44 140 39 8 -2 32 -6 54 -10z m761 -9 c73 -32
129 -100 141 -176 10 -55 85 -459 96 -515 17 -87 14 -157 -11 -209 -60 -122
-242 -148 -352 -49 -45 41 -67 100 -84 226 -2 15 -6 31 -8 35 -3 4 -8 33 -11
65 -4 33 -12 70 -17 84 -5 14 -8 28 -5 30 2 3 0 19 -5 36 -5 18 -14 59 -19 92
-5 33 -12 71 -15 85 -21 104 -12 159 35 224 31 41 83 81 115 88 40 8 101 1
140 -16z"/>
</g>
</svg>
