<svg id="icon" xmlns="http://www.w3.org/2000/svg" xml:space="preserve" viewBox="0 0 304.547 304.547"><path d="M279.924 69.575c-3.803-5.837-12.088-6.611-17.014-1.685-3.644 3.644-4.301 9.344-1.483 13.661 14.949 22.931 22.958 50.763 20.717 80.607-4.683 62.432-54.571 113.656-116.887 119.721-81.99 7.983-150.577-60.605-142.589-142.589C28.59 78.473 77.578 29.194 138.342 22.773c31.37-3.316 60.69 4.736 84.659 20.357 4.317 2.813 10.017 2.156 13.661-1.489 4.926-4.926 4.153-13.211-1.684-17.015C205.091 5.15 168.064-4.204 128.642 1.808 63.789 11.703 11.76 63.52 1.833 128.368c-15.701 102.574 71.755 190.036 174.335 174.346 64.853-9.916 116.675-61.945 126.571-126.798 6.017-39.422-3.343-76.455-22.815-106.341z"/><path d="M150.064 174.929V92.458c0-6.081-4.932-11.018-11.018-11.018s-11.018 4.932-11.018 11.018v93.484c0 6.081 4.932 11.018 11.018 11.018h93.484c6.086 0 11.013-4.932 11.013-11.018 0-6.081-4.932-11.013-11.013-11.013h-82.466z"/></svg>
