<svg id="icon" xmlns="http://www.w3.org/2000/svg" xml:space="preserve" viewBox="0 0 185.261 185.261"><path d="m113.663 90.939-2.726 2.727 21.253 21.253.005.004 42.818 42.818a14.105 14.105 0 0 1 4.157 10.039c0 3.792-1.477 7.357-4.158 10.039-2.681 2.681-6.246 4.158-10.038 4.158s-7.357-1.477-10.039-4.158l-35.923-35.923-2.934 2.934a11.01 11.01 0 0 1-7.836 3.247c-2.713 0-5.324-.993-7.353-2.797a1031.77 1031.77 0 0 1-21.691-19.875l-55.852 55.852a13.585 13.585 0 0 1-9.67 4.005c-3.653 0-7.087-1.422-9.67-4.005S0 175.238 0 171.586s1.422-7.087 4.005-9.67L59.58 106.34C49.406 96.104 39.366 85.356 31.777 75.826 14.18 53.732 8.204 28.26 6.208 15.044a10.184 10.184 0 0 1 2.334-8.175 10.29 10.29 0 0 1 7.806-3.583c2.713 0 5.275 1.068 7.214 3.006l68.033 68.033 2.73-2.729c-2.755-9.127-.754-19.166 6.139-26.059l43.34-43.339a7.5 7.5 0 0 1 10.607 10.606L116.375 50.84l3.72 3.72 38.035-38.036a7.5 7.5 0 0 1 10.607 10.606l-38.036 38.036 3.719 3.72 38.036-38.036a7.5 7.5 0 0 1 10.607 10.606l-43.34 43.339-.01.009c-4.742 4.738-11.147 7.348-18.033 7.348h-.001a27.428 27.428 0 0 1-8.016-1.213z"/></svg>
