<svg id="icon" xmlns="http://www.w3.org/2000/svg" xml:space="preserve" viewBox="0 0 490.655 490.655"><path d="M.553 188.327c1.323-3.84 4.693-6.613 8.704-7.147l154.496-20.48 72.022-144.383c3.584-7.232 15.51-7.232 19.093 0l72.021 144.384 154.496 20.48a10.69 10.69 0 0 1 8.704 7.147c1.301 3.84.32 8.085-2.56 10.965l-113.3 113.301 30.868 154.389a10.705 10.705 0 0 1-3.989 10.581c-3.243 2.475-7.637 2.88-11.243 1.067L245.31 406.354l-144.555 72.277a10.748 10.748 0 0 1-4.757 1.131 10.72 10.72 0 0 1-6.485-2.197 10.73 10.73 0 0 1-3.989-10.581l30.87-154.389L3.091 199.294c-2.837-2.86-3.819-7.105-2.539-10.967zm234.112 158.4c0 4.032 2.283 7.744 5.888 9.536l90.39 45.184a10.77 10.77 0 0 0 4.778 1.131 10.72 10.72 0 0 0 6.485-2.197 10.73 10.73 0 0 0 3.99-10.581l-18.24-91.243 68.31-68.331a10.656 10.656 0 0 0 2.56-10.965c-1.324-3.84-4.694-6.613-8.705-7.147l-91.264-12.096-43.968-88.107c-2.197-4.437-7.168-6.741-11.989-5.632a10.656 10.656 0 0 0-8.235 10.389z"/></svg>
